<?xml version="1.0" encoding="UTF-8"?>
<svg width="400px" height="400px" viewBox="0 0 400 400" version="1.1" xmlns="http://www.w3.org/2000/svg" xmlns:xlink="http://www.w3.org/1999/xlink">
    <g id="en_US" stroke="none" stroke-width="1" fill="none" fill-rule="evenodd">
        <g id="Artboard" transform="translate(-56.000000, -56.000000)" fill="#FA233B" fill-rule="nonzero">
            <path d="M256,56 C366.45695,56 456,145.54305 456,256 C456,366.45695 366.45695,456 256,456 C145.54305,456 56,366.45695 56,256 C56,145.54305 145.54305,56 256,56 Z M119.918951,290.337983 C115.015561,291.927717 112.329311,297.191435 113.919045,302.094826 C128.637163,347.491531 164.485762,383.346385 209.879633,398.072672 C214.782736,399.663294 220.04694,396.977998 221.637563,392.074895 C223.228185,387.171792 220.542889,381.907588 215.639786,380.316966 C175.936474,367.436762 144.548846,336.043657 131.675794,296.33789 C130.08606,291.434499 124.822342,288.748249 119.918951,290.337983 Z M157.991951,278.058043 C153.089666,279.651185 150.407076,284.916769 152.000217,289.819053 C162.788377,323.015491 189.006526,349.227582 222.205718,360.007829 C227.108384,361.599795 232.373324,358.915941 233.965289,354.013274 C235.557255,349.110607 232.873401,343.845668 227.970734,342.253702 C200.455583,333.319143 178.694087,311.562676 169.752961,284.049777 L169.664124,283.789289 C167.971878,279.053049 162.806695,276.493351 157.991951,278.058043 Z M256,196 C222.862915,196 196,222.862915 196,256 C196,289.137085 222.862915,316 256,316 C289.137085,316 316,289.137085 316,256 C316,222.862915 289.137085,196 256,196 Z M278.034711,157.986726 C276.442745,162.889393 279.126599,168.154332 284.029266,169.746298 C311.544417,178.680857 333.305913,200.437324 342.247039,227.950223 L342.335876,228.210711 C344.028122,232.946951 349.193305,235.506649 354.008049,233.941957 C358.910334,232.348815 361.592924,227.083231 359.999783,222.180947 C349.211623,188.984509 322.993474,162.772418 289.794282,151.992171 C284.891616,150.400205 279.626676,153.084059 278.034711,157.986726 Z M290.362437,119.925105 C288.771815,124.828208 291.457111,130.092412 296.360214,131.683034 C336.063526,144.563238 367.451154,175.956343 380.324206,215.66211 C381.91394,220.565501 387.177658,223.251751 392.081049,221.662017 C396.984439,220.072283 399.670689,214.808565 398.080955,209.905174 C383.362837,164.508469 347.514238,128.653615 302.120367,113.927328 C297.217264,112.336706 291.95306,115.022002 290.362437,119.925105 Z" id="Combined-Shape"></path>
        </g>
    </g>
</svg>