<svg width="300px" height="300px" viewBox="0 0 300 300" version="1.1" xmlns="http://www.w3.org/2000/svg" xmlns:xlink="http://www.w3.org/1999/xlink">
    <path d="M150,0 C232.842712,0 300,67.1572875 300,150 C300,232.842712 232.842712,300 150,300 C67.1572875,300 0,232.842712 0,150 C0,67.1572875 67.1572875,0 150,0 Z M244.889226,181.62988 C240.139839,195.915187 232.080361,209.341383 220.710792,220.710952 C209.559868,231.861876 196.430657,239.828796 182.45291,244.611711 L181.629719,244.889387 L184.79328,254.378098 C200.506894,249.153746 215.275493,240.288387 227.78186,227.78202 C240.061052,215.502827 248.830312,201.042841 254.089637,185.648795 L254.378211,184.792617 L244.889226,181.62988 Z M216.422189,172.141909 C213.097579,182.141283 207.456045,191.539292 199.497588,199.497749 C191.732996,207.262342 182.598131,212.821515 172.871405,216.175268 L172.140803,216.422664 L175.304365,225.911376 C186.732399,222.111842 197.473151,215.664322 206.568656,206.568817 C215.462008,197.675465 221.823772,187.209187 225.653949,176.065483 L225.911175,175.304646 L216.422189,172.141909 Z M150,100 C122.385763,100 100,122.385763 100,150 C100,177.614237 122.385763,200 150,200 C177.614237,200 200,177.614237 200,150 C200,122.385763 177.614237,100 150,100 Z M124.696807,74.088859 C113.26842,77.8883519 102.527327,84.3359762 93.4315711,93.4317318 C84.5381883,102.325115 78.1764105,112.791435 74.3462375,123.935183 L74.0890123,124.696023 L83.5777238,127.859585 C86.902293,117.859857 92.5439314,108.461507 100.502639,100.5028 C108.267263,92.7381756 117.40217,87.1789891 127.12894,83.8252402 L127.859545,83.5778442 L124.696807,74.088859 Z M115.20777,45.6221769 C99.4938496,50.8464925 84.7249531,59.711943 72.2183677,72.2185284 C59.9393893,84.4975068 51.1702219,98.9572022 45.9108655,114.350947 L45.62229,115.207108 L55.1110014,118.370669 C59.8603881,104.085362 67.9198661,90.6591656 79.2894355,79.2895962 C90.4403593,68.1386724 103.56957,60.1717529 117.547318,55.3888376 L118.370508,55.1111621 L115.20777,45.6221769 Z" fill="#000000" fill-rule="nonzero"></path>
</svg>