<?xml version="1.0" encoding="UTF-8"?>
<svg width="30px" height="30px" viewBox="0 0 30 30" version="1.1" xmlns="http://www.w3.org/2000/svg" xmlns:xlink="http://www.w3.org/1999/xlink">
    <g stroke="none" stroke-width="1" fill="none" fill-rule="evenodd">
        <g transform="translate(-86.000000, -33.000000)" fill="#919191" fill-rule="nonzero">
            <g transform="translate(86.000000, 33.000000)">
                <path d="M15,0 C23.2842712,0 30,6.71572875 30,15 C30,23.2842712 23.2842712,30 15,30 C6.71572875,30 0,23.2842712 0,15 C0,6.71572875 6.71572875,0 15,0 Z M24.4887722,18.1634401 C24.0138138,19.591802 23.2079162,20.9342583 22.0710792,22.0710952 C20.9342422,23.2079322 19.5917859,24.0138299 18.1634241,24.4887883 L18.1634241,24.4887883 L18.480314,25.4374819 C20.0513072,24.9150038 21.5278109,24.0285771 22.778186,22.778202 C24.0289344,21.5274536 24.915517,20.0504415 25.4379338,18.4789229 L25.4379338,18.4789229 Z M21.6423178,17.2138936 C21.3098697,18.2139421 20.7456834,19.1538503 19.9497588,19.9497749 C19.1541134,20.7454203 18.2145854,21.30949 17.2149298,21.6419839 L17.2149298,21.6419839 L17.5302882,22.5911869 C18.673147,22.2112399 19.7472758,21.5664715 20.6568656,20.6568817 C21.5664555,19.7472918 22.2112238,18.673163 22.5911708,17.5303043 L22.5911708,17.5303043 Z M15,10 C12.2385763,10 10,12.2385763 10,15 C10,17.7614237 12.2385763,20 15,20 C17.7614237,20 20,17.7614237 20,15 C20,12.2385763 17.7614237,10 15,10 Z M12.4707977,7.40851465 C11.3275419,7.78841511 10.253029,8.43330129 9.34315711,9.34317318 C8.43356727,10.252763 7.78879888,11.3268918 7.40885194,12.4697506 L7.40885194,12.4697506 L8.35770496,12.7861613 C8.69015302,11.7861128 9.25433933,10.8462045 10.0502639,10.05028 C10.8461885,9.2543554 11.7860967,8.69016909 12.7861452,8.35772103 L12.7861452,8.35772103 Z M11.5211159,4.56210504 C9.94959728,5.0845218 8.4725852,5.9711044 7.22183677,7.22185284 C5.97117756,8.47251205 5.08463223,9.94940262 4.56220078,11.5207957 L4.56220078,11.5207957 L5.51089601,11.837681 C5.98580786,10.408921 6.79182371,9.06607946 7.92894355,7.92895962 C9.06606339,6.79183978 10.4089049,5.98582393 11.8376649,5.51091208 L11.8376649,5.51091208 Z"></path>
            </g>
        </g>
    </g>
</svg>